<svg viewBox="0 0 24 24" fill="currentColor" xmlns="http://www.w3.org/2000/svg">
    <path d="M19.25 14.75C19.25 13.01 20.75 12.5 20.75 12.5C20.75 12.5 19.34 12.03 19.25 10.25C19.15 8.47 20.25 7.25 20.5 7C19.25 5.75 17.65 5.5 16.75 5.5C15.25 5.5 14.05 6.47 13.25 6.47C12.45 6.47 11.05 5.5 9.75 5.5C7.75 5.5 6.25 6.75 5.25 8.75C3.25 12.75 4.75 18.25 6.75 20.75C7.75 22.01 9 23.25 10.5 23.25C11.9 23.25 12.5 22.5 14.75 22.5C17 22.5 17.6 23.25 19 23.25C20.5 23.25 21.75 22.01 22.75 20.75C21.75 20.15 20.65 19.25 20.65 17.75C20.65 16.25 22.25 15.5 22.25 15.5C22.25 15.5 20.75 15.25 19.25 14.75Z" />
    <path d="M16 4.25C16.53 3.53 17.25 2.76 17.25 1.75C16.5 1.78 15.5 2.25 15 2.75C14.5 3.25 13.97 4.03 13.97 5C14.78 5.03 15.5 4.75 16 4.25Z" />
</svg>
